<svg xmlns="http://www.w3.org/2000/svg" viewBox="0 0 163.57 170.61"><defs><style>.cls-1{fill:#232323;}</style></defs><title>Logo</title><g id="Layer_2" data-name="Layer 2"><g id="Design"><path class="cls-1" d="M82.37,34.72l.73.06A42.3,42.3,0,0,1,98.16,16.7c4.66-3.14,11-5,18-6.07Q100.78,3.31,81.11,3.31a101.22,101.22,0,0,0-13.83.92l0,0A41.34,41.34,0,0,1,82.37,34.72Z"/><path class="cls-1" d="M134.7,89.65a52.5,52.5,0,0,1-13.65,1.75l-1,0q-.76,21.59-11,34.16Q98,139.13,79.19,139.13q-18.27,0-29.55-14t-11.28-38A86.28,86.28,0,0,1,39,76.48a52.89,52.89,0,0,1-15.22-3.23C15.53,70.1,9.61,62.81,5.41,54.79A102.68,102.68,0,0,0,0,89q0,36.33,21.89,59t56.63,22.62q35.64,0,57.81-23.35T158.5,85.77A113.1,113.1,0,0,0,157.28,69C152.1,78.14,144.72,86.91,134.7,89.65Z"/><path class="cls-1" d="M89.32,73.25c-11.55,18.4-16.94,45-16.48,81.32a3.5,3.5,0,0,0,3.5,3.44h0a3.45,3.45,0,0,0,3.45-3.5c-.5-39.21,6.1-63.25,16.1-78.51,10.56,9.46,27.21,9.54,36.91,6.89,22.73-6.2,33.05-57.17,30.28-62.07-1.77-3.13-45.74-8.62-61.06,1.69A34.3,34.3,0,0,0,86.82,52.35c0,.66,0,1.85.1,3.4a3.17,3.17,0,0,0,5.47,2c11.27-11.89,25-17.57,33-20.06a3.49,3.49,0,0,1,4.43,2.5,3.61,3.61,0,0,1-2.51,4.23c-8.81,2.75-24.83,9.66-35.55,25.22Z"/><path class="cls-1" d="M66.52,60.53C59.94,44.37,51.16,33.09,39,25.16a3.57,3.57,0,0,1-1.48-4.24,3.51,3.51,0,0,1,5.18-1.71c10.7,6.94,19,16.12,25.53,28.39a3.18,3.18,0,0,0,5.93-.77,51.35,51.35,0,0,0,1-6A34.32,34.32,0,0,0,62.86,9.66C48.62-2.11,4.32-1,2.25,2c-3.24,4.6,2,56.34,24,64.75,8.66,3.32,23.43,4.9,34.65-1.43,7.49,18.44,12.28,46.23,11.87,89.22A3.47,3.47,0,0,0,76.26,158h0a3.5,3.5,0,0,0,3.5-3.46C80.22,109.21,74.86,80,66.52,60.53Z"/></g></g></svg>